<?xml version="1.0" encoding="utf-8"?>
<!-- Generator: Adobe Illustrator 16.0.0, SVG Export Plug-In . SVG Version: 6.00 Build 0)  -->
<!DOCTYPE svg PUBLIC "-//W3C//DTD SVG 1.1//EN" "http://www.w3.org/Graphics/SVG/1.1/DTD/svg11.dtd">
<svg version="1.1" xmlns="http://www.w3.org/2000/svg" xmlns:xlink="http://www.w3.org/1999/xlink" x="0px" y="0px" width="1280px"
	height="705.777px" viewBox="0 0 1280 705.777" style="enable-background:new 0 0 1280 705.777;" xml:space="preserve">
	<style type="text/css">
		<![CDATA[
		.st0{clip-path:url(#SVGID_4_);fill:none;stroke:#FFFFFF;stroke-miterlimit:10;}
		.st1{clip-path:url(#SVGID_8_);fill:#D7D7D7;}
		.st2{clip-path:url(#SVGID_2_);fill:none;stroke:#FFFFFF;stroke-miterlimit:10;}
		.st3{clip-path:url(#SVGID_7_);}
		.st4{clip-path:url(#SVGID_2_);fill:none;stroke:#969696;stroke-linecap:square;stroke-miterlimit:10;}
		.st5{fill:none;stroke:#936745;stroke-width:2;stroke-miterlimit:10;}
		.st6{fill:#322D28;}
		.st5{
		stroke-dasharray: 500;
		stroke-dashoffset: 0;
		-webkit-animation : dash 6s linear infinite;
		-o-animation: dash 6s linear infinite;
		-moz-animation: dash 6s linear infinite;
		animation: dash 6s linear infinite;

		}

		@-webkit-keyframes dash{

		from{
		stroke-dashoffset : 2000;
		}

		to{
		stroke-dashoffset : 0;
		}
		}
		]]>
	</style>
	<g id="Layer_2">
		<rect x="0" class="st6" width="1280" height="705.777"/>
	</g>
	<g id="Layer_1">
		<g>
			<g>
				<defs>
					<rect id="SVGID_1_" x="0" y="0.017" width="1280" height="705.76"/>
				</defs>
				<clipPath id="SVGID_2_">
					<use xlink:href="#SVGID_1_"  style="overflow:visible;"/>
				</clipPath>
				<path class="st2" d="M208,0c0,314.639,0,475.231,0,481.777c0,15.111,2.667,24.889,30.223,24.889c18.37,0,271.704,0,760,0
					c23.703,0,35.555-6.814,35.555-20.444s0-175.111,0-484.444"/>
					<path class="st2" d="M102.222,703.927c0-38.999,0-63.547,0-73.645c0-15.147,2.667-24.949,30.222-24.949
						c9.243,0,85.475,0,228.695,0c8.355,0,27.305,0,27.305,15.868c0,10.418,0,46.309,0,82.799 M459.556,704.889
						c0-38.435,0-62.705,0-72.811c0-15.158,2.667-24.967,30.222-24.967c9.243,0,370.81,0,514.029,0c8.354,0,27.305,0,27.305,15.88
						c0,6.95,0,34.043,0,81.28"/>
						<path class="st2" d="M146.667,0c0,308.74,0,469.333,0,481.777c0,18.667-5.333,24.889-24,24.889c-12.445,0-53.333,0-122.667,0"/>
						<path class="st2" d="M1211.557,0c0,308.74,0,469.333,0,481.777c0,18.667,5.332,24.889,24,24.889c12.443,0,27.26,0,44.443,0"/>
						<path class="st2" d="M1210.668,704.889c0-59.104,0-94.402,0-105.896c0-17.238,5.332-22.985,24-22.985c12.443,0,27.259,0,44.444,0
							"/>
							<path class="st4" d="M177.333,18.222v26.236V18.222L177.333,18.222z M178.222,213.777v26.235V213.777L178.222,213.777z
								M177.333,116v26.235V116L177.333,116z M178.222,311.555v26.236V311.555L178.222,311.555z M178.222,409.333v26.235V409.333
								L178.222,409.333z M177.333,67.11v26.236V67.11L177.333,67.11z M178.222,262.667v26.236V262.667L178.222,262.667z
								M177.333,164.888v26.236V164.888L177.333,164.888z M178.222,360.444v26.235V360.444L178.222,360.444z M178.222,458.222v26.236
								V458.222L178.222,458.222z M1171.112,16.444v26.235V16.444L1171.112,16.444z M1172.001,212v26.235V212L1172.001,212z
								M1171.112,114.222v26.236V114.222L1171.112,114.222z M1172.001,309.777v26.236V309.777L1172.001,309.777z M1172.001,407.556
								v26.235V407.556L1172.001,407.556z M1171.112,65.333v26.236V65.333L1171.112,65.333z M1172.001,260.889v26.236V260.889
								L1172.001,260.889z M1171.112,163.11v26.236V163.11L1171.112,163.11z M1172.001,358.666v26.236V358.666L1172.001,358.666z
								M1172.001,456.444v26.235V456.444L1172.001,456.444z M1074.223,16.444v26.235V16.444L1074.223,16.444z M1075.111,212v26.235V212
								L1075.111,212z M1074.223,114.222v26.236V114.222L1074.223,114.222z M1075.111,309.777v26.236V309.777L1075.111,309.777z
								M1075.111,407.556v26.235V407.556L1075.111,407.556z M1074.223,65.333v26.236V65.333L1074.223,65.333z M1075.111,260.889v26.236
								V260.889L1075.111,260.889z M1074.223,163.11v26.236V163.11L1074.223,163.11z M1075.111,358.666v26.236V358.666L1075.111,358.666
								z M1075.111,456.444v26.235V456.444L1075.111,456.444z M1084.89,612.889v26.235V612.889L1084.89,612.889z M1084.89,661.777
								v26.236V661.777L1084.89,661.777z M1181.777,615.556v26.235V615.556L1181.777,615.556z M1181.777,664.445v26.234V664.445
								L1181.777,664.445z"/>
								<path class="st2" d="M0,550.238c72.889,0,111.111,0,114.667,0c5.333,0,9.778-0.678,9.778,6.706c0,7.385-5.333,6.586-9.778,6.586
									c-2.963,0-41.185,0-114.667,0"/>
									<path class="st2" d="M1130.206-1.334c0,319.408,0,480.89,0,484.445c0,5.333,0.679,9.777-6.705,9.777
										c-7.386,0-6.587-5.333-6.587-9.777c0-2.964,0-164.445,0-484.445"/>
										<path class="st2" d="M1138.238,704.444c0-52.741,0-80.888,0-84.443c0-5.335-0.678-9.779,6.707-9.779
											c7.384,0,6.586,5.334,6.586,9.779c0,2.962,0,30.813,0,83.555"/>
										</g>
										<g>
											<defs>
												<rect id="SVGID_3_" x="0" width="1280" height="705.777"/>
											</defs>
											<clipPath id="SVGID_4_">
												<use xlink:href="#SVGID_3_"  style="overflow:visible;"/>
											</clipPath>
											<path class="st0" d="M236.287,550.222h767.204c1.583,0,2.579,0.248,3.447,0.713c0.869,0.465,1.551,1.146,2.017,2.016
												c0.464,0.87,0.712,1.864,0.712,3.447v0.982c0,1.584-0.248,2.578-0.712,3.447c-0.466,0.869-1.147,1.551-2.017,2.017
												c-0.868,0.464-1.864,0.712-3.447,0.712H236.287c-1.584,0-2.579-0.248-3.448-0.712c-0.869-0.466-1.551-1.147-2.016-2.017
												c-0.464-0.869-0.712-1.863-0.712-3.447v-0.982c0-1.583,0.248-2.577,0.712-3.447c0.465-0.869,1.147-1.551,2.016-2.016
												S234.703,550.222,236.287,550.222L236.287,550.222z"/>
											</g>
											<g>
												<defs>
													<rect id="SVGID_5_" x="0" width="1280" height="705.777"/>
												</defs>
												<defs>
													<path id="SVGID_6_" d="M415.297,608c-0.873-2.667,1.495-2.667,3.492-2.667c4.006,0,9.603,0,13.094,0
														c1.887,0,4.365,0,3.492,2.667c-0.844,2.581-7.856,12.444-10.038,12.444C423.153,620.444,416.428,611.452,415.297,608
														L415.297,608z"/>
													</defs>
													<clipPath id="SVGID_7_">
														<use xlink:href="#SVGID_5_"  style="overflow:visible;"/>
													</clipPath>
													<clipPath id="SVGID_8_" class="st3">
														<use xlink:href="#SVGID_6_"  style="overflow:visible;"/>
													</clipPath>
													<rect x="410.667" y="600.89" class="st1" width="29.333" height="23.999"/>
												</g>
											</g>
										</g>
										<g id="Layer_3">
											<g>
												<g>
													<path class="st5" d="M208,0.009c0,314.64,0,475.231,0,481.777c0,15.111,2.667,24.889,30.223,24.889c18.37,0,271.704,0,760,0
														c23.703,0,35.555-6.814,35.555-20.444s0-175.111,0-484.444"/>
														<path class="st5" d="M102.222,703.936c0-38.999,0-63.547,0-73.645c0-15.147,2.667-24.949,30.222-24.949
															c9.243,0,85.475,0,228.695,0c8.355,0,27.305,0,27.305,15.868c0,10.418,0,46.309,0,82.799 M459.556,704.897
															c0-38.435,0-62.705,0-72.811c0-15.158,2.667-24.967,30.222-24.967c9.243,0,370.81,0,514.029,0c8.354,0,27.305,0,27.305,15.88
															c0,6.95,0,34.043,0,81.28"/>
															<path class="st5" d="M146.667,0.009c0,308.74,0,469.333,0,481.777c0,18.667-5.333,24.889-24,24.889c-12.445,0-53.333,0-122.667,0
																"/>
																<path class="st5" d="M1211.557,0.009c0,308.74,0,469.333,0,481.777c0,18.667,5.332,24.889,24,24.889c12.443,0,27.26,0,44.443,0"
																	/>
																	<path class="st5" d="M1210.668,704.897c0-59.104,0-94.402,0-105.896c0-17.238,5.332-22.985,24-22.985c12.443,0,27.259,0,44.444,0
																		"/>
																	</g>
																</g>
															</g>
														</svg>
